<svg xmlns="http://www.w3.org/2000/svg" viewBox="0 0 151.3 72.32"><defs><style>.cls-1{fill:#f7f7ff;}.cls-2{fill:#fff;}.cls-3{fill:#ebebff;}</style></defs><g id="Réteg_2" data-name="Réteg 2"><g id="ĎŽÓť_1" data-name="ĎŽÓť 1"><path class="cls-1" d="M4.61,56.87a13.18,13.18,0,0,0-.87,7.3c.92,5.55,4.88,8.32,10.38,8.14,4.87-.15,9.72-2.07,14.12-4.41,6,6.09,16.3,4.57,24.51-.15,4.52,5.26,15.47,1.84,21.08-1.13a19.6,19.6,0,0,0,4.84-3.48c-.56.57,3.94,3.33,4.31,3.53a12.64,12.64,0,0,0,5,1.4c3.87.36,7.44-1.33,10.61-3.8,10,6.25,26.08,8.31,31.92-2.67a39.55,39.55,0,0,0,7.45-.55c4-.57,8.78-1.41,11.94-4.21,2.54-2.26,1.33-5.8-1.08-7.66-3.84-3-10.31-1.85-14.13,1-.63-3.93-3.6-7.53-7-9.53a10.55,10.55,0,0,0-6.23-10.18,11.9,11.9,0,0,0-5.76-1.28c0-7.91-10.3-12.26-18.07-10.8-.54-9-4.48-17-14.49-18.21-9.36-1.07-18,4-24.32,10.45a31.17,31.17,0,0,0-8.44,14.68C46.11,22.77,40.69,23,36,24.33c-4.34,1.24-10.68,5-13,9.63A27.61,27.61,0,0,0,9.68,35.83C4.06,38.25-.44,43.28,0,49.72A8.44,8.44,0,0,0,4.61,56.87Z"/><path class="cls-2" d="M148.81,49.18c-3.84-3-10.31-1.85-14.13,1-.63-3.93-3.6-7.53-7-9.53a10.55,10.55,0,0,0-6.23-10.18,11.9,11.9,0,0,0-5.76-1.28c0-7.91-10.3-12.26-18.07-10.8-.54-9-4.48-17-14.49-18.21-9.36-1.07-18,4-24.32,10.45a31.17,31.17,0,0,0-8.44,14.68C46.11,22.77,40.69,23,36,24.33c-4.34,1.24-10.68,5-13,9.63A27.61,27.61,0,0,0,9.68,35.83C4.06,38.25-.44,43.28,0,49.72a9.12,9.12,0,0,0,1,3.6c.73-5.64,7.19-11.82,12.1-13a16.16,16.16,0,0,1,10.5.88,14.45,14.45,0,0,1,5,3,.77.77,0,0,0,1.18-.15A1.48,1.48,0,0,0,30,43c-.29-2.06.7-3.77,2-5.31A20.84,20.84,0,0,1,40.1,32a12.12,12.12,0,0,1,8.53-.39c1.95.64,3,2.66,3.66,4.43a7.16,7.16,0,0,1,.27,1.46,7.17,7.17,0,0,0-.37,2.91.77.77,0,0,0,1.29.33c.71-.8.55-1.81.66-2.86a3.69,3.69,0,0,0,0-.47,8.14,8.14,0,0,0,.26-1.06,20.66,20.66,0,0,1,1.75-5.1,37.27,37.27,0,0,1,4.78-8.74c3.88-4.76,10-7.11,15.89-8.26,3.81-.75,8.24-.17,10.5,3.3,2,3,1.77,7.11,1.09,10.5-.76,3.72-2.9,6.43-4.9,9.51a46.24,46.24,0,0,1-3.57,4.68c-.33.4-.66.82-1,1.25-1.07.87-2.36,1.65-2.76,3-.19.62.58,1.31,1.15.89A18.42,18.42,0,0,0,80.7,44c1.62-1.41,3.41-2.55,5.13-3.84a21.84,21.84,0,0,1,11.35-4.45c3.65-.31,7.51-.2,10.73,1.7a6.29,6.29,0,0,1,3.23,5.51c0,1.17-.43,2.3-.22,3.46a.78.78,0,0,0,1,.55c1.78-.59,3.16-1.12,5.08-.75a19.15,19.15,0,0,1,5.11,2.27c3.64,2,6,5.7,7.47,9.48a18.65,18.65,0,0,1,1,3.66,40.3,40.3,0,0,0,7.44-.55c4-.57,8.78-1.41,11.94-4.21C152.43,54.58,151.22,51,148.81,49.18Z"/><path class="cls-3" d="M102.42,58.9a6,6,0,0,1-.12-3,8.7,8.7,0,0,1,3-5.21l.75-.29c1-.4,2.35-.71,2.83-1.75a.62.62,0,0,0-.06-.62c-4.16,4.41-10.71,2.81-14.37-1.93a.51.51,0,0,0,0,.56,34.34,34.34,0,0,1,1.93,5c1.33,3.53-1.53,5.43-4.35,6.74-5.42,2.5-11.4,2.91-16.82.12a.58.58,0,0,0-.79.2C73,61,70.33,61.86,67.89,62.58c-3.29,1-7,.91-9.14-2.18a6.43,6.43,0,0,1-.51-6.46,10.27,10.27,0,0,1,3.22-4.46,10.37,10.37,0,0,1,1.08-1.12c-5.17,2.42-12.62.64-17.15-2.53a.42.42,0,0,0,0,.16A20.16,20.16,0,0,0,48,50.48c2.2,3.46,1.68,6.85-1,9.79-4.31,4.65-13.73,4.45-17.55-.52a.53.53,0,0,0-.71-.18c-5,2.73-9.07,7-15.15,7.19A31.47,31.47,0,0,1,5.72,66,12.33,12.33,0,0,1,4,65.49c1.3,4.66,5,7,10.08,6.82,4.87-.15,9.72-2.07,14.12-4.41,6,6.09,16.3,4.57,24.51-.15,4.52,5.26,15.47,1.84,21.08-1.13a19.6,19.6,0,0,0,4.84-3.48c-.56.57,3.94,3.33,4.31,3.53a12.64,12.64,0,0,0,5,1.4c3.87.36,7.44-1.33,10.61-3.8,9,5.69,23.2,7.9,30.08,0,0-.2,0-.41,0-.61C121.2,69,104.37,66.79,102.42,58.9Z"/></g></g></svg>