<svg xmlns="http://www.w3.org/2000/svg" viewBox="0 0 87.03 55.64"><defs><style>.cls-1{fill:#f7f7ff;}.cls-2{fill:#fff;}.cls-3{fill:#ebebff;}</style></defs><g id="Réteg_2" data-name="Réteg 2"><g id="ĎŽÓť_1" data-name="ĎŽÓť 1"><path class="cls-1" d="M6.87,51.23a7.3,7.3,0,0,0,6,.38c1.66,2.8,5.62,4,9.15,4A12.46,12.46,0,0,0,30,52.94a10.27,10.27,0,0,0,2.76-3.81,24.85,24.85,0,0,0,8.33,1.64c4.93.27,10.29-2,12.3-6.61,4,6.44,14.64,5.58,17.11-1.49,1.9,3.37,6.89,3.71,10.28,2.06,4.31-2.09,6.91-8.72,6.16-13.28-1-6.15-6.56-7.23-11.48-5.63-2.08-3.75-7.6-6.12-13.11-6.53a11.68,11.68,0,0,0-.15-3,16.63,16.63,0,0,0-4.9-8.49A28.3,28.3,0,0,0,39.45.06C33-.38,26.26,1.57,21.73,6.25A15.41,15.41,0,0,0,17.64,18c-7.46-.58-15.93,8.38-12,16C1.16,32.9-.46,38.69.11,42.81.63,46.51,3.76,49.5,6.87,51.23Z"/><path class="cls-2" d="M86.9,31.45c-1-6.15-6.56-7.23-11.48-5.63-2.08-3.75-7.6-6.12-13.11-6.53a11.68,11.68,0,0,0-.15-3,16.63,16.63,0,0,0-4.9-8.49A28.3,28.3,0,0,0,39.45.06C33-.38,26.26,1.57,21.73,6.25A15.41,15.41,0,0,0,17.64,18c-7.46-.58-15.93,8.38-12,16C1.16,32.9-.46,38.69.11,42.81a8.39,8.39,0,0,0,.7,2.3c.11-.26.22-.52.35-.78,2-4.1,8.24-10.68,13.37-8.67a.54.54,0,0,0,.29-1c-1.2-.28-1.23-2.43-1.25-3.38-.07-2.79,2.14-5.64,3.91-7.58a8.62,8.62,0,0,1,6.4-2.9c2.24-.05,3.54,1.26,5.26,2.37a.61.61,0,0,0,.75-.1,1.77,1.77,0,0,0,.55-1.14,7.39,7.39,0,0,1,2.7-4.14c2.42-2.21,6.27-5.51,9.81-4.07,3.07,1.26,5.61,1.77,8.19,4.11,2.9,2.62,2.15,5.3,2.77,8.61a.64.64,0,0,0,.46.47c2.27.42,5.07-.74,7.37-1,3.77-.36,6.7,1,10.19,2a9.62,9.62,0,0,1,7.32,8.61c.32,2.4-.62,5,.37,7.31a.68.68,0,0,0,.93.25,18.51,18.51,0,0,0,3.86-2.71A14.72,14.72,0,0,0,86.9,31.45Z"/><path class="cls-3" d="M73.43,43.29a21.48,21.48,0,0,1-3.35-4.14c-.65,3.64-5.34,4.78-8.52,4.82a8.57,8.57,0,0,1-5.35-1.59c-1-.72-1.74-1.64-2.7-2.38-1.92,1.91-4.61,3.13-7.22,2.32-3.74-1.16-2.29-6.42-1.14-9.39-3.55,3-7.85,4.29-12.19,2.53a6.54,6.54,0,0,1,1.88,5.12c-.44,2.62-2.65,4.47-5,5.55-4.08,1.92-9.19,2.66-12.77,0-1.52,2.52-5.49,3.82-8,4.38a17.59,17.59,0,0,1-2.78.41c.19.12.37.24.56.34a7.3,7.3,0,0,0,6,.38c1.66,2.8,5.62,4,9.15,4A12.46,12.46,0,0,0,30,52.94a10.27,10.27,0,0,0,2.76-3.81,24.85,24.85,0,0,0,8.33,1.64c4.93.27,10.29-2,12.3-6.61,4,6.44,14.64,5.58,17.11-1.49,1.39,2.47,4.43,3.29,7.3,2.91A11.58,11.58,0,0,1,73.43,43.29Z"/></g></g></svg>