<svg xmlns="http://www.w3.org/2000/svg" viewBox="0 0 94.58 52.65"><defs><style>.cls-1{fill:#f7f7ff;}.cls-2{fill:#fff;}.cls-3{fill:#ebebff;}</style></defs><g id="Réteg_2" data-name="Réteg 2"><g id="ĎŽÓť_1" data-name="ĎŽÓť 1"><path class="cls-1" d="M93.84,24c-2.14-6.88-8.76-6.87-14.93-4.7-1.73-5.95-9.4-9.55-16.21-8.82-2.05-4.51-5.89-7.92-11.64-8a28.64,28.64,0,0,0-12.43,3c-3-3.94-7.28-6.37-12.37-5.1-4.44,1.1-7.14,5.16-8,9.69C5.23,8.63-5.5,28.7,3.08,38.87,7.44,44,15,45.94,21.66,44.71a18.71,18.71,0,0,0,5.68,5.2c4.6,2.78,11.59,3.93,16.41,1.1a17.12,17.12,0,0,0,5.85-6.37c4.27,3.93,11.13,5.61,16.46,4.91a17.86,17.86,0,0,0,12.9-8,12.33,12.33,0,0,0,10.17-1.44C94.38,36.75,95.57,29.52,93.84,24Z"/><path class="cls-2" d="M93.84,24c-2.14-6.88-8.76-6.87-14.93-4.7-1.73-5.95-9.4-9.55-16.21-8.82-2.05-4.51-5.89-7.92-11.64-8a28.64,28.64,0,0,0-12.43,3c-3-3.94-7.28-6.37-12.37-5.1-4.44,1.1-7.14,5.16-8,9.69C8.61,9,.23,19.73,0,29.5c5.15-7.73,15.93-14.52,23-11.41-.62-4,2.16-8.65,6.17-9.27,4.63-.92,6.48,3.09,9.57,5.87,1.55-8.95,14.82-3.09,17,2.78,5.54-2.77,13.51-.94,14.8,5.77,6.25-2.46,15.24-1.36,19.31,4.42,2.74,3.9,2.39,7.66.77,11.22C94.59,35.23,95.38,28.93,93.84,24Z"/><path class="cls-2" d="M0,30.9l.77-2c-.27.27-.54.77-.81,1.1C0,30.3,0,30.6,0,30.9Z"/><path class="cls-3" d="M80.12,34.3a.29.29,0,0,0-.34-.15c-2.29.74-4.24,1.93-6.72,2a.31.31,0,0,0-.15.57c1.15.79,3.23.48,4.46.06.83-.53.53,0-.9,1.58a12.7,12.7,0,0,1-3,2.14,14.27,14.27,0,0,1-5.91,1.36c-4.49.15-8.25-.74-11.67-3.7-1.19-1,.59-1.44,1.23-2.1a5.88,5.88,0,0,0,1-1.32,19.64,19.64,0,0,1-5.94,2c-4,.72-7.27-1.32-10.68-3.08a.32.32,0,0,0,0,.33,3.17,3.17,0,0,0,1,1.37,7.51,7.51,0,0,0,1.2.75c1.54.84-3.68,2.35-3.86,2.35a24.66,24.66,0,0,1-11.48-2.41s-3.7-2.64-2.73-2.85c.76-.16,1.73-1.46,2.19-2,1.21-1.34,2.78-3.29,3-5.13a.25.25,0,0,0-.11-.23A21.46,21.46,0,0,1,23,31.21C18,33.24,12.92,32.48,7.78,31a.32.32,0,0,0,.14.19A18.36,18.36,0,0,0,12.62,34a10.61,10.61,0,0,0,1.93.3c1.16.13-2.15,3.15-2.35,3.28-2,1.29-5.36.52-7.58.33a19.71,19.71,0,0,1-2.51-.35,11.5,11.5,0,0,0,1,1.35C7.44,44,15,45.94,21.66,44.71a18.71,18.71,0,0,0,5.68,5.2c4.6,2.78,11.59,3.93,16.41,1.1a17.12,17.12,0,0,0,5.85-6.37c4.27,3.93,11.13,5.61,16.46,4.91a17.86,17.86,0,0,0,12.9-8A12.29,12.29,0,0,0,87.23,41C84.44,39.41,81.35,37.06,80.12,34.3Z"/></g></g></svg>