<svg xmlns="http://www.w3.org/2000/svg" viewBox="0 0 129.5 51.8"><defs><style>.cls-1{fill:#f7f7ff;}.cls-2{fill:#fff;}.cls-3{fill:#ebebff;}</style></defs><g id="Réteg_2" data-name="Réteg 2"><g id="ĎŽÓť_1" data-name="ĎŽÓť 1"><path class="cls-1" d="M127.46,27.5a18.26,18.26,0,0,0-9.81-6c-1.41-4.4-4.32-8.29-9-9.36a10.07,10.07,0,0,0-5.05.21c-3.33-8-13.73-13.56-22-12.15a9.94,9.94,0,0,0-7.92,6.7,9.14,9.14,0,0,0-8.51,1,31.11,31.11,0,0,0-5.78,5.7c-7-2.3-16.61,4.45-17.52,11.14a5.69,5.69,0,0,0-2.74-.28,4,4,0,0,0-1.73.7,5.43,5.43,0,0,0-4.39-3c-2.78-.37-5.13,1.56-6.45,4a10.86,10.86,0,0,0-7.9-2.4,7.07,7.07,0,0,0-5.3,2.68,8.41,8.41,0,0,0-2.58-1.55c-3.16-1.21-7.17.37-9.12,3-3.41,4.58-1.55,13.63,4.9,13.2,3.34,7.5,11.65,11.45,20.13,10.55a23.57,23.57,0,0,0,11.18-4.3c4.7,3.32,11.79,3.76,17.15,3a22.62,22.62,0,0,0,12.71-6.45,15.22,15.22,0,0,0,8.5,3.95c2.75.31,4.79-1.19,6.44-3.19,3.75,2.43,9.4,3,13.22,3,8,.07,16.54-.46,24-3.55C126.24,41.56,133,34.25,127.46,27.5Z"/><path class="cls-2" d="M117.65,21.52c-1.41-4.4-4.32-8.29-9-9.36a10.07,10.07,0,0,0-5.05.21c-3.33-8-13.73-13.56-22-12.15a9.94,9.94,0,0,0-7.92,6.7,9.14,9.14,0,0,0-8.51,1,31.11,31.11,0,0,0-5.78,5.7c-7-2.3-16.61,4.45-17.52,11.14a5.69,5.69,0,0,0-2.74-.28,4,4,0,0,0-1.73.7,5.43,5.43,0,0,0-4.39-3c-2.78-.37-5.13,1.56-6.45,4a10.86,10.86,0,0,0-7.9-2.4,7.07,7.07,0,0,0-5.3,2.68,8.41,8.41,0,0,0-2.58-1.55c-3.16-1.21-7.17.37-9.12,3-2.44,3.27-2.17,8.82.53,11.56a14,14,0,0,1,2.93-4.67A11,11,0,0,1,12.25,32c2.91-.12,4.67,1.36,6.45,3.38a.64.64,0,0,0,1.06-.28c.45-2.16,2.81-2.9,4.63-3.61a23.75,23.75,0,0,1,7.67-2,32,32,0,0,1,7.46,1,19.36,19.36,0,0,1,3.19.9c1.5.55,2,1.83,2.94,2.84a.71.71,0,0,0,1.19-.5c.32-2.79,2.9-5.3,4.72-7.21a35.27,35.27,0,0,1,6.21-5.15c2.92-1.92,11.37-6.16,13.16-.69a.75.75,0,0,0,1.46-.2c.22-5.88,7-8,11.87-9.14,2.29-.52,5.39-.6,7.3,1,.9.77.52,3.39.52,4.46,0,1.39,0,2.77,0,4.15,0,.91,1.41,1.14,1.6.22.54-2.49,6.22-1.84,7.81-1.47a25.58,25.58,0,0,1,7,2.67,10.15,10.15,0,0,1,5.09,5.86c.66,2.14.09,4.33.5,6.45a.85.85,0,0,0,1,.58,4.52,4.52,0,0,0,1.42-.79,6,6,0,0,1,3.35-.93,23.22,23.22,0,0,1,8.46.95,6.41,6.41,0,0,1,.86.34,7.92,7.92,0,0,0-1.75-7.35A18.26,18.26,0,0,0,117.65,21.52Z"/><path class="cls-3" d="M117.82,40.06a.59.59,0,0,0-.75-.57c-1.89.71-3.57,1.81-5.53,2.45a19.93,19.93,0,0,1-7.25,1.12,61.74,61.74,0,0,1-7.57-.56c-1.19-.21-2.33-.6-3.5-.85-1.92-.42-1.87-1.35-2.66-2.55a.87.87,0,0,0-.09-.11,18.11,18.11,0,0,1-8.36,1.58c-2.86-.1-6.64-.53-7.49-3.77a.78.78,0,0,1,0-.26c-.69-2.86,2.94-5.72,6.51-7.63L83,28.32a10.39,10.39,0,0,0,3.58-1.71s0-.05.06-.07c-5.9,2.92-13.64,4.2-19.42,1.74l0,0C71.56,36.35,60.84,40.89,55,43c-6.29,2.34-15.47,2.25-20.65-2.48a.49.49,0,0,0-.66,0c-.59.56-.85,1.28-1.46,1.84a36.7,36.7,0,0,1-4,3.41c-2.73,1.9-6.11,2.65-9.29,3.39a19,19,0,0,1-4.22.39,21.51,21.51,0,0,0,11.91,2.09,23.57,23.57,0,0,0,11.18-4.3c4.7,3.32,11.79,3.76,17.15,3a22.62,22.62,0,0,0,12.71-6.45,15.22,15.22,0,0,0,8.5,3.95c2.75.31,4.79-1.19,6.44-3.19,3.75,2.43,9.4,3,13.22,3,8,.07,16.54-.46,24-3.55l.53-.23A3.67,3.67,0,0,1,117.82,40.06Z"/></g></g></svg>